<svg width="52" height="52" viewBox="0 0 52 52" fill="none" xmlns="http://www.w3.org/2000/svg">
<path d="M43.3333 6.5H8.66667C3.9 6.5 0 10.4 0 15.1667V17.3333C0 18.6333 0.866667 19.5 2.16667 19.5H49.8333C51.1333 19.5 52 18.6333 52 17.3333V15.1667C52 10.4 48.1 6.5 43.3333 6.5Z" fill="#084337"/>
<path d="M49.8333 23.8333H2.16667C0.866667 23.8333 0 24.7 0 26V36.8333C0 41.6 3.9 45.5 8.66667 45.5H43.3333C48.1 45.5 52 41.6 52 36.8333V26C52 24.7 51.1333 23.8333 49.8333 23.8333ZM23.8333 39H10.8333C9.53333 39 8.66667 38.1333 8.66667 36.8333C8.66667 35.5333 9.53333 34.6666 10.8333 34.6666H23.8333C25.1333 34.6666 26 35.5333 26 36.8333C26 38.1333 25.1333 39 23.8333 39ZM41.1667 32.5H36.8333C35.5333 32.5 34.6667 31.6333 34.6667 30.3333C34.6667 29.0333 35.5333 28.1666 36.8333 28.1666H41.1667C42.4667 28.1666 43.3333 29.0333 43.3333 30.3333C43.3333 31.6333 42.4667 32.5 41.1667 32.5Z" fill="#084337"/>
</svg>
