<svg width="52" height="52" viewBox="0 0 52 52" fill="none" xmlns="http://www.w3.org/2000/svg">
<path d="M40.6758 0.0203247H11.3242C7.48517 0.0203247 4.33673 3.16876 4.33673 7.00783V44.9922C4.33673 48.8313 7.48517 51.9797 11.3242 51.9797H40.686C44.525 51.9797 47.6735 48.8313 47.6735 44.9922V7.00783C47.6633 3.16876 44.525 0.0203247 40.6758 0.0203247ZM42.9102 41.1024C42.9102 44.1289 40.432 46.5969 37.4156 46.5969H14.3203C11.2938 46.5969 8.82579 44.1188 8.82579 41.1024V11.2227C8.82579 8.19611 11.3039 5.72814 14.3203 5.72814H37.4156C40.4422 5.72814 42.9102 8.20626 42.9102 11.2227V41.1024Z" fill="#084337"/>
<path d="M39.4164 25.7664V26.3656C39.4164 27.5133 38.482 28.4477 37.3344 28.4477H21.4703C20.3227 28.4477 19.3883 27.5133 19.3883 26.3656V25.7664C19.3883 24.6188 20.3227 23.6844 21.4703 23.6844H37.3344C38.482 23.6844 39.4164 24.6188 39.4164 25.7664Z" fill="#084337"/>
<path d="M39.4164 34.8461V35.4453C39.4164 36.5929 38.482 37.5273 37.3344 37.5273H21.4703C20.3227 37.5273 19.3883 36.5929 19.3883 35.4453V34.8461C19.3883 33.6984 20.3227 32.764 21.4703 32.764H37.3344C38.482 32.7742 39.4164 33.7086 39.4164 34.8461Z" fill="#084337"/>
<path d="M39.4164 16.5039V17.1031C39.4164 18.2508 38.482 19.1852 37.3344 19.1852H21.4703C20.3227 19.1852 19.3883 18.2508 19.3883 17.1031V16.5039C19.3883 15.3563 20.3227 14.4219 21.4703 14.4219H37.3344C38.482 14.4219 39.4164 15.3563 39.4164 16.5039Z" fill="#084337"/>
<path d="M15.0109 19.2563C16.3459 19.2563 17.4281 18.174 17.4281 16.8391C17.4281 15.5041 16.3459 14.4219 15.0109 14.4219C13.676 14.4219 12.5938 15.5041 12.5938 16.8391C12.5938 18.174 13.676 19.2563 15.0109 19.2563Z" fill="#084337"/>
<path d="M15.0109 28.1734C16.3459 28.1734 17.4281 27.0912 17.4281 25.7562C17.4281 24.4213 16.3459 23.3391 15.0109 23.3391C13.676 23.3391 12.5938 24.4213 12.5938 25.7562C12.5938 27.0912 13.676 28.1734 15.0109 28.1734Z" fill="#084337"/>
<path d="M15.0109 37.568C16.3459 37.568 17.4281 36.4857 17.4281 35.1508C17.4281 33.8158 16.3459 32.7336 15.0109 32.7336C13.676 32.7336 12.5938 33.8158 12.5938 35.1508C12.5938 36.4857 13.676 37.568 15.0109 37.568Z" fill="#084337"/>
</svg>
