<svg width="52" height="52" viewBox="0 0 52 52" fill="none" xmlns="http://www.w3.org/2000/svg">
<path d="M21.6667 6.5H8.66667C8.09203 6.5 7.54093 6.72827 7.1346 7.1346C6.72827 7.54093 6.5 8.09203 6.5 8.66667V21.6667C6.5 22.2413 6.72827 22.7924 7.1346 23.1987C7.54093 23.6051 8.09203 23.8333 8.66667 23.8333H21.6667C22.2413 23.8333 22.7924 23.6051 23.1987 23.1987C23.6051 22.7924 23.8333 22.2413 23.8333 21.6667V8.66667C23.8333 8.09203 23.6051 7.54093 23.1987 7.1346C22.7924 6.72827 22.2413 6.5 21.6667 6.5ZM19.5 19.5H10.8333V10.8333H19.5V19.5ZM43.3333 28.1667H30.3333C29.7587 28.1667 29.2076 28.3949 28.8013 28.8013C28.3949 29.2076 28.1667 29.7587 28.1667 30.3333V43.3333C28.1667 43.908 28.3949 44.4591 28.8013 44.8654C29.2076 45.2717 29.7587 45.5 30.3333 45.5H43.3333C43.908 45.5 44.4591 45.2717 44.8654 44.8654C45.2717 44.4591 45.5 43.908 45.5 43.3333V30.3333C45.5 29.7587 45.2717 29.2076 44.8654 28.8013C44.4591 28.3949 43.908 28.1667 43.3333 28.1667ZM41.1667 41.1667H32.5V32.5H41.1667V41.1667ZM36.8333 6.5C32.0537 6.5 28.1667 10.387 28.1667 15.1667C28.1667 19.9463 32.0537 23.8333 36.8333 23.8333C41.613 23.8333 45.5 19.9463 45.5 15.1667C45.5 10.387 41.613 6.5 36.8333 6.5ZM36.8333 19.5C34.4435 19.5 32.5 17.5565 32.5 15.1667C32.5 12.7768 34.4435 10.8333 36.8333 10.8333C39.2232 10.8333 41.1667 12.7768 41.1667 15.1667C41.1667 17.5565 39.2232 19.5 36.8333 19.5ZM15.1667 28.1667C10.387 28.1667 6.5 32.0537 6.5 36.8333C6.5 41.613 10.387 45.5 15.1667 45.5C19.9463 45.5 23.8333 41.613 23.8333 36.8333C23.8333 32.0537 19.9463 28.1667 15.1667 28.1667ZM15.1667 41.1667C12.7768 41.1667 10.8333 39.2232 10.8333 36.8333C10.8333 34.4435 12.7768 32.5 15.1667 32.5C17.5565 32.5 19.5 34.4435 19.5 36.8333C19.5 39.2232 17.5565 41.1667 15.1667 41.1667Z" fill="white"/>
</svg>
