<svg width="20" height="21" viewBox="0 0 20 21" fill="none" xmlns="http://www.w3.org/2000/svg">
<path d="M1.71835 10.7898C1.6489 10.6027 1.6489 10.3969 1.71835 10.2098C2.39476 8.56969 3.54294 7.16735 5.01732 6.18056C6.4917 5.19378 8.22588 4.66699 10 4.66699C11.7741 4.66699 13.5083 5.19378 14.9827 6.18056C16.4571 7.16735 17.6053 8.56969 18.2817 10.2098C18.3511 10.3969 18.3511 10.6027 18.2817 10.7898C17.6053 12.4299 16.4571 13.8323 14.9827 14.8191C13.5083 15.8058 11.7741 16.3326 10 16.3326C8.22588 16.3326 6.4917 15.8058 5.01732 14.8191C3.54294 13.8323 2.39476 12.4299 1.71835 10.7898Z" stroke="#ABAFB1" stroke-width="1.25" stroke-linecap="round" stroke-linejoin="round"/>
<path d="M10 13C11.3807 13 12.5 11.8807 12.5 10.5C12.5 9.11929 11.3807 8 10 8C8.61929 8 7.5 9.11929 7.5 10.5C7.5 11.8807 8.61929 13 10 13Z" stroke="#ABAFB1" stroke-width="1.25" stroke-linecap="round" stroke-linejoin="round"/>
</svg>
