<svg width="20" height="21" viewBox="0 0 20 21" fill="none" xmlns="http://www.w3.org/2000/svg">
<g clip-path="url(#clip0_11798_15972)">
<path d="M0.833374 17.1665V12.1665H5.83337" stroke="white" stroke-width="2" stroke-linecap="round" stroke-linejoin="round"/>
<path d="M19.1666 3.8335V8.8335H14.1666" stroke="white" stroke-width="2" stroke-linecap="round" stroke-linejoin="round"/>
<path d="M2.92504 7.99998C3.34768 6.80564 4.06598 5.73782 5.01293 4.89616C5.95987 4.05451 7.10459 3.46645 8.34028 3.18686C9.57596 2.90727 10.8623 2.94527 12.0794 3.29729C13.2964 3.64932 14.4044 4.30391 15.3 5.19998L19.1667 8.83331M0.833374 12.1666L4.70004 15.8C5.59566 16.6961 6.70368 17.3506 7.92071 17.7027C9.13774 18.0547 10.4241 18.0927 11.6598 17.8131C12.8955 17.5335 14.0402 16.9455 14.9872 16.1038C15.9341 15.2621 16.6524 14.1943 17.075 13" stroke="white" stroke-width="2" stroke-linecap="round" stroke-linejoin="round"/>
</g>
<defs>
<clipPath id="clip0_11798_15972">
<rect width="20" height="20" fill="white" transform="translate(0 0.5)"/>
</clipPath>
</defs>
</svg>
