<svg width="216" height="216" viewBox="0 0 216 216" fill="none" xmlns="http://www.w3.org/2000/svg">
<g clip-path="url(#clip0_7_2)">
<path d="M108 216C167.647 216 216 167.647 216 108C216 48.3532 167.647 0 108 0C48.3532 0 0 48.3532 0 108C0 167.647 48.3532 216 108 216Z" fill="#F4F5FA"/>
<path d="M179.906 29H36.8394V172.067H179.906V29Z" fill="#F4F5FA"/>
<path d="M152.198 54.4376H64.1358C61.8228 54.4376 59.9482 56.3176 59.9482 58.6253C59.9482 60.933 61.8228 62.8129 64.1358 62.8129H152.198C158.071 62.8129 162.855 67.5921 162.855 73.4801V127.592C162.855 133.47 158.071 138.249 152.198 138.249H64.553C58.6808 138.249 53.8964 133.47 53.8964 127.592V73.063C53.8964 70.7447 52.0164 68.87 49.6981 68.87C47.3904 68.87 45.5157 70.7447 45.5157 73.063V127.592C45.5157 138.096 54.0548 146.63 64.553 146.63H152.198C162.697 146.63 171.236 138.096 171.236 127.592V73.4801C171.236 62.9714 162.697 54.4376 152.198 54.4376ZM138.125 113.931C135.58 113.931 133.52 111.866 133.52 109.337C133.52 107.013 131.64 105.139 129.327 105.139C127.014 105.139 125.14 107.013 125.14 109.337C125.14 115.014 128.836 119.809 133.932 121.562V123.933C133.932 126.246 135.812 128.131 138.125 128.131C140.443 128.131 142.313 126.246 142.313 123.933V121.562C147.414 119.809 151.105 115.014 151.105 109.337C151.105 102.165 145.286 96.3407 138.125 96.3407C135.58 96.3407 133.52 94.2759 133.52 91.7411C133.52 89.2011 135.58 87.1363 138.125 87.1363C140.66 87.1363 142.725 89.2011 142.725 91.7411C142.725 94.0541 144.599 95.9341 146.918 95.9341C149.231 95.9341 151.105 94.0541 151.105 91.7411C151.105 86.0537 147.414 81.2693 142.313 79.5108V77.1292C142.313 74.8162 140.443 72.9362 138.125 72.9362C135.812 72.9362 133.932 74.8162 133.932 77.1292V79.5108C128.836 81.2693 125.14 86.0537 125.14 91.7411C125.14 98.9019 130.964 104.721 138.125 104.721C140.66 104.721 142.725 106.786 142.725 109.337C142.725 111.866 140.66 113.931 138.125 113.931ZM66.4647 125.681H108.373C110.686 125.681 112.561 123.796 112.561 121.488C112.561 119.18 110.686 117.3 108.373 117.3H66.4647C64.1517 117.3 62.277 119.18 62.277 121.488C62.277 123.796 64.1517 125.681 66.4647 125.681ZM66.4647 83.7724H108.373C110.686 83.7724 112.561 81.8925 112.561 79.5847C112.561 77.2665 110.686 75.3918 108.373 75.3918H66.4647C64.1517 75.3918 62.277 77.2665 62.277 79.5847C62.277 81.8925 64.1517 83.7724 66.4647 83.7724ZM66.4647 104.721H108.373C110.686 104.721 112.561 102.847 112.561 100.528C112.561 98.2154 110.686 96.3407 108.373 96.3407H66.4647C64.1517 96.3407 62.277 98.2154 62.277 100.528C62.277 102.847 64.1517 104.721 66.4647 104.721Z" fill="#328373"/>
<path d="M41.2784 160.438H38.7898C38.7443 160.116 38.6515 159.83 38.5114 159.58C38.3712 159.326 38.1913 159.11 37.9716 158.932C37.7519 158.754 37.4981 158.617 37.2102 158.523C36.9261 158.428 36.6174 158.381 36.2841 158.381C35.6818 158.381 35.1572 158.53 34.7102 158.83C34.2633 159.125 33.9167 159.557 33.6705 160.125C33.4242 160.689 33.3011 161.375 33.3011 162.182C33.3011 163.011 33.4242 163.708 33.6705 164.273C33.9205 164.837 34.2689 165.263 34.7159 165.551C35.1629 165.839 35.6799 165.983 36.267 165.983C36.5966 165.983 36.9015 165.939 37.1818 165.852C37.4659 165.765 37.7178 165.638 37.9375 165.472C38.1572 165.301 38.339 165.095 38.483 164.852C38.6307 164.61 38.733 164.333 38.7898 164.023L41.2784 164.034C41.214 164.568 41.053 165.083 40.7955 165.58C40.5417 166.072 40.1989 166.513 39.767 166.903C39.339 167.29 38.8277 167.597 38.233 167.824C37.642 168.047 36.9735 168.159 36.2273 168.159C35.1894 168.159 34.2614 167.924 33.4432 167.455C32.6288 166.985 31.9848 166.305 31.5114 165.415C31.0417 164.525 30.8068 163.447 30.8068 162.182C30.8068 160.913 31.0455 159.833 31.5227 158.943C32 158.053 32.6477 157.375 33.4659 156.909C34.2841 156.439 35.2045 156.205 36.2273 156.205C36.9015 156.205 37.5265 156.299 38.1023 156.489C38.6818 156.678 39.1951 156.955 39.642 157.318C40.089 157.678 40.4527 158.119 40.733 158.642C41.017 159.165 41.1989 159.763 41.2784 160.438ZM46.9403 168.17C46.0578 168.17 45.2945 167.983 44.6506 167.608C44.0104 167.229 43.5161 166.703 43.1676 166.028C42.8191 165.35 42.6449 164.564 42.6449 163.67C42.6449 162.769 42.8191 161.981 43.1676 161.307C43.5161 160.629 44.0104 160.102 44.6506 159.727C45.2945 159.348 46.0578 159.159 46.9403 159.159C47.8229 159.159 48.5843 159.348 49.2244 159.727C49.8684 160.102 50.3646 160.629 50.7131 161.307C51.0616 161.981 51.2358 162.769 51.2358 163.67C51.2358 164.564 51.0616 165.35 50.7131 166.028C50.3646 166.703 49.8684 167.229 49.2244 167.608C48.5843 167.983 47.8229 168.17 46.9403 168.17ZM46.9517 166.295C47.3532 166.295 47.6884 166.182 47.9574 165.955C48.2263 165.723 48.429 165.409 48.5653 165.011C48.7055 164.614 48.7756 164.161 48.7756 163.653C48.7756 163.146 48.7055 162.693 48.5653 162.295C48.429 161.898 48.2263 161.583 47.9574 161.352C47.6884 161.121 47.3532 161.006 46.9517 161.006C46.5464 161.006 46.2055 161.121 45.929 161.352C45.6563 161.583 45.4498 161.898 45.3097 162.295C45.1733 162.693 45.1051 163.146 45.1051 163.653C45.1051 164.161 45.1733 164.614 45.3097 165.011C45.4498 165.409 45.6563 165.723 45.929 165.955C46.2055 166.182 46.5464 166.295 46.9517 166.295ZM55.2301 162.955V168H52.8097V159.273H55.1165V160.812H55.2188C55.4119 160.305 55.7358 159.903 56.1903 159.608C56.6449 159.309 57.196 159.159 57.8438 159.159C58.4498 159.159 58.9782 159.292 59.429 159.557C59.8797 159.822 60.2301 160.201 60.4801 160.693C60.7301 161.182 60.8551 161.765 60.8551 162.443V168H58.4347V162.875C58.4384 162.341 58.3021 161.924 58.0256 161.625C57.7491 161.322 57.3684 161.17 56.8835 161.17C56.5578 161.17 56.2699 161.241 56.0199 161.381C55.7737 161.521 55.5805 161.725 55.4403 161.994C55.304 162.259 55.2339 162.58 55.2301 162.955ZM67.4048 159.273V161.091H62.1491V159.273H67.4048ZM63.3423 157.182H65.7628V165.318C65.7628 165.542 65.7969 165.716 65.8651 165.841C65.9332 165.962 66.0279 166.047 66.1491 166.097C66.2741 166.146 66.4181 166.17 66.581 166.17C66.6946 166.17 66.8082 166.161 66.9219 166.142C67.0355 166.119 67.1226 166.102 67.1832 166.091L67.5639 167.892C67.4427 167.93 67.2723 167.973 67.0526 168.023C66.8329 168.076 66.5658 168.108 66.2514 168.119C65.6681 168.142 65.1567 168.064 64.7173 167.886C64.2817 167.708 63.9427 167.432 63.7003 167.057C63.4579 166.682 63.3385 166.208 63.3423 165.636V157.182ZM68.9815 168V159.273H71.3281V160.795H71.419C71.5781 160.254 71.8452 159.845 72.2202 159.568C72.5952 159.288 73.027 159.148 73.5156 159.148C73.6368 159.148 73.7675 159.155 73.9077 159.17C74.0478 159.186 74.1709 159.206 74.277 159.233V161.381C74.1634 161.347 74.0062 161.316 73.8054 161.29C73.6046 161.263 73.4209 161.25 73.2543 161.25C72.8982 161.25 72.58 161.328 72.2997 161.483C72.0232 161.634 71.8035 161.847 71.6406 162.119C71.4815 162.392 71.402 162.706 71.402 163.062V168H68.9815ZM79.0653 168.17C78.1828 168.17 77.4195 167.983 76.7756 167.608C76.1354 167.229 75.6411 166.703 75.2926 166.028C74.9441 165.35 74.7699 164.564 74.7699 163.67C74.7699 162.769 74.9441 161.981 75.2926 161.307C75.6411 160.629 76.1354 160.102 76.7756 159.727C77.4195 159.348 78.1828 159.159 79.0653 159.159C79.9479 159.159 80.7093 159.348 81.3494 159.727C81.9934 160.102 82.4896 160.629 82.8381 161.307C83.1866 161.981 83.3608 162.769 83.3608 163.67C83.3608 164.564 83.1866 165.35 82.8381 166.028C82.4896 166.703 81.9934 167.229 81.3494 167.608C80.7093 167.983 79.9479 168.17 79.0653 168.17ZM79.0767 166.295C79.4782 166.295 79.8134 166.182 80.0824 165.955C80.3513 165.723 80.554 165.409 80.6903 165.011C80.8305 164.614 80.9006 164.161 80.9006 163.653C80.9006 163.146 80.8305 162.693 80.6903 162.295C80.554 161.898 80.3513 161.583 80.0824 161.352C79.8134 161.121 79.4782 161.006 79.0767 161.006C78.6714 161.006 78.3305 161.121 78.054 161.352C77.7813 161.583 77.5748 161.898 77.4347 162.295C77.2983 162.693 77.2301 163.146 77.2301 163.653C77.2301 164.161 77.2983 164.614 77.4347 165.011C77.5748 165.409 77.7813 165.723 78.054 165.955C78.3305 166.182 78.6714 166.295 79.0767 166.295ZM87.3551 156.364V168H84.9347V156.364H87.3551ZM93.2713 168.17C92.3736 168.17 91.6009 167.989 90.9531 167.625C90.3092 167.258 89.813 166.739 89.4645 166.068C89.116 165.394 88.9418 164.597 88.9418 163.676C88.9418 162.778 89.116 161.991 89.4645 161.312C89.813 160.634 90.3035 160.106 90.9361 159.727C91.5724 159.348 92.3187 159.159 93.1747 159.159C93.7505 159.159 94.2865 159.252 94.7827 159.438C95.2827 159.619 95.7183 159.894 96.0895 160.261C96.4645 160.629 96.7562 161.091 96.9645 161.648C97.1728 162.201 97.277 162.848 97.277 163.591V164.256H89.9077V162.756H94.9986C94.9986 162.407 94.9228 162.098 94.7713 161.83C94.6198 161.561 94.4096 161.35 94.1406 161.199C93.8755 161.044 93.5668 160.966 93.2145 160.966C92.8471 160.966 92.5213 161.051 92.2372 161.222C91.9569 161.388 91.7372 161.614 91.5781 161.898C91.419 162.178 91.3376 162.491 91.3338 162.835V164.261C91.3338 164.693 91.4134 165.066 91.5724 165.381C91.7353 165.695 91.9645 165.938 92.2599 166.108C92.5554 166.278 92.9058 166.364 93.3111 166.364C93.58 166.364 93.8262 166.326 94.0497 166.25C94.2732 166.174 94.4645 166.061 94.6236 165.909C94.7827 165.758 94.9039 165.572 94.9872 165.352L97.2259 165.5C97.1122 166.038 96.8793 166.508 96.527 166.909C96.1785 167.307 95.7277 167.617 95.1747 167.841C94.6255 168.061 93.991 168.17 93.2713 168.17ZM102.605 168V156.364H110.31V158.392H105.065V161.165H109.798V163.193H105.065V168H102.605ZM111.919 168V159.273H114.339V168H111.919ZM113.135 158.148C112.775 158.148 112.466 158.028 112.209 157.79C111.955 157.547 111.828 157.258 111.828 156.92C111.828 156.587 111.955 156.301 112.209 156.062C112.466 155.82 112.775 155.699 113.135 155.699C113.495 155.699 113.802 155.82 114.055 156.062C114.313 156.301 114.442 156.587 114.442 156.92C114.442 157.258 114.313 157.547 114.055 157.79C113.802 158.028 113.495 158.148 113.135 158.148ZM118.699 162.955V168H116.278V159.273H118.585V160.812H118.688C118.881 160.305 119.205 159.903 119.659 159.608C120.114 159.309 120.665 159.159 121.312 159.159C121.919 159.159 122.447 159.292 122.898 159.557C123.348 159.822 123.699 160.201 123.949 160.693C124.199 161.182 124.324 161.765 124.324 162.443V168H121.903V162.875C121.907 162.341 121.771 161.924 121.494 161.625C121.218 161.322 120.837 161.17 120.352 161.17C120.027 161.17 119.739 161.241 119.489 161.381C119.242 161.521 119.049 161.725 118.909 161.994C118.773 162.259 118.703 162.58 118.699 162.955ZM128.72 168.165C128.163 168.165 127.667 168.068 127.232 167.875C126.796 167.678 126.451 167.388 126.197 167.006C125.947 166.619 125.822 166.138 125.822 165.562C125.822 165.078 125.911 164.67 126.089 164.341C126.268 164.011 126.51 163.746 126.817 163.545C127.124 163.345 127.472 163.193 127.862 163.091C128.256 162.989 128.669 162.917 129.101 162.875C129.608 162.822 130.018 162.773 130.328 162.727C130.639 162.678 130.864 162.606 131.004 162.511C131.144 162.417 131.214 162.277 131.214 162.091V162.057C131.214 161.697 131.101 161.419 130.874 161.222C130.65 161.025 130.332 160.926 129.919 160.926C129.483 160.926 129.137 161.023 128.879 161.216C128.622 161.405 128.451 161.644 128.368 161.932L126.129 161.75C126.243 161.22 126.466 160.761 126.8 160.375C127.133 159.985 127.563 159.686 128.089 159.477C128.62 159.265 129.233 159.159 129.93 159.159C130.415 159.159 130.879 159.216 131.322 159.33C131.769 159.443 132.165 159.619 132.51 159.858C132.858 160.097 133.133 160.403 133.334 160.778C133.535 161.15 133.635 161.595 133.635 162.114V168H131.339V166.79H131.271C131.131 167.062 130.944 167.303 130.709 167.511C130.474 167.716 130.192 167.877 129.862 167.994C129.533 168.108 129.152 168.165 128.72 168.165ZM129.413 166.494C129.769 166.494 130.084 166.424 130.357 166.284C130.629 166.14 130.843 165.947 130.999 165.705C131.154 165.462 131.232 165.187 131.232 164.881V163.955C131.156 164.004 131.052 164.049 130.919 164.091C130.79 164.129 130.644 164.165 130.482 164.199C130.319 164.229 130.156 164.258 129.993 164.284C129.83 164.307 129.682 164.328 129.55 164.347C129.266 164.388 129.018 164.455 128.805 164.545C128.593 164.636 128.429 164.759 128.311 164.915C128.194 165.066 128.135 165.256 128.135 165.483C128.135 165.812 128.254 166.064 128.493 166.239C128.735 166.409 129.042 166.494 129.413 166.494ZM137.933 162.955V168H135.513V159.273H137.82V160.812H137.922C138.115 160.305 138.439 159.903 138.893 159.608C139.348 159.309 139.899 159.159 140.547 159.159C141.153 159.159 141.681 159.292 142.132 159.557C142.583 159.822 142.933 160.201 143.183 160.693C143.433 161.182 143.558 161.765 143.558 162.443V168H141.138V162.875C141.142 162.341 141.005 161.924 140.729 161.625C140.452 161.322 140.071 161.17 139.587 161.17C139.261 161.17 138.973 161.241 138.723 161.381C138.477 161.521 138.284 161.725 138.143 161.994C138.007 162.259 137.937 162.58 137.933 162.955ZM149.409 168.17C148.515 168.17 147.746 167.981 147.102 167.602C146.462 167.22 145.97 166.689 145.625 166.011C145.284 165.333 145.114 164.553 145.114 163.67C145.114 162.777 145.286 161.992 145.631 161.318C145.979 160.64 146.473 160.112 147.114 159.733C147.754 159.35 148.515 159.159 149.398 159.159C150.159 159.159 150.826 159.297 151.398 159.574C151.97 159.85 152.422 160.239 152.756 160.739C153.089 161.239 153.273 161.826 153.307 162.5H151.023C150.958 162.064 150.788 161.714 150.511 161.449C150.239 161.18 149.881 161.045 149.438 161.045C149.062 161.045 148.735 161.148 148.455 161.352C148.178 161.553 147.962 161.847 147.807 162.233C147.652 162.619 147.574 163.087 147.574 163.636C147.574 164.193 147.65 164.667 147.801 165.057C147.956 165.447 148.174 165.744 148.455 165.949C148.735 166.153 149.062 166.256 149.438 166.256C149.714 166.256 149.962 166.199 150.182 166.085C150.405 165.972 150.589 165.807 150.733 165.591C150.881 165.371 150.977 165.108 151.023 164.801H153.307C153.269 165.468 153.087 166.055 152.761 166.562C152.439 167.066 151.994 167.46 151.426 167.744C150.858 168.028 150.186 168.17 149.409 168.17ZM158.834 168.17C157.936 168.17 157.163 167.989 156.516 167.625C155.872 167.258 155.375 166.739 155.027 166.068C154.679 165.394 154.504 164.597 154.504 163.676C154.504 162.778 154.679 161.991 155.027 161.312C155.375 160.634 155.866 160.106 156.499 159.727C157.135 159.348 157.881 159.159 158.737 159.159C159.313 159.159 159.849 159.252 160.345 159.438C160.845 159.619 161.281 159.894 161.652 160.261C162.027 160.629 162.319 161.091 162.527 161.648C162.735 162.201 162.839 162.848 162.839 163.591V164.256H155.47V162.756H160.561C160.561 162.407 160.485 162.098 160.334 161.83C160.182 161.561 159.972 161.35 159.703 161.199C159.438 161.044 159.129 160.966 158.777 160.966C158.41 160.966 158.084 161.051 157.8 161.222C157.519 161.388 157.3 161.614 157.141 161.898C156.982 162.178 156.9 162.491 156.896 162.835V164.261C156.896 164.693 156.976 165.066 157.135 165.381C157.298 165.695 157.527 165.938 157.822 166.108C158.118 166.278 158.468 166.364 158.874 166.364C159.143 166.364 159.389 166.326 159.612 166.25C159.836 166.174 160.027 166.061 160.186 165.909C160.345 165.758 160.466 165.572 160.55 165.352L162.788 165.5C162.675 166.038 162.442 166.508 162.089 166.909C161.741 167.307 161.29 167.617 160.737 167.841C160.188 168.061 159.554 168.17 158.834 168.17ZM164.419 168V159.273H166.839V168H164.419ZM165.635 158.148C165.275 158.148 164.966 158.028 164.709 157.79C164.455 157.547 164.328 157.258 164.328 156.92C164.328 156.587 164.455 156.301 164.709 156.062C164.966 155.82 165.275 155.699 165.635 155.699C165.995 155.699 166.302 155.82 166.555 156.062C166.813 156.301 166.942 156.587 166.942 156.92C166.942 157.258 166.813 157.547 166.555 157.79C166.302 158.028 165.995 158.148 165.635 158.148ZM168.778 168V159.273H171.125V160.795H171.216C171.375 160.254 171.642 159.845 172.017 159.568C172.392 159.288 172.824 159.148 173.312 159.148C173.434 159.148 173.564 159.155 173.705 159.17C173.845 159.186 173.968 159.206 174.074 159.233V161.381C173.96 161.347 173.803 161.316 173.602 161.29C173.402 161.263 173.218 161.25 173.051 161.25C172.695 161.25 172.377 161.328 172.097 161.483C171.82 161.634 171.6 161.847 171.438 162.119C171.278 162.392 171.199 162.706 171.199 163.062V168H168.778ZM178.862 168.17C177.98 168.17 177.216 167.983 176.572 167.608C175.932 167.229 175.438 166.703 175.089 166.028C174.741 165.35 174.567 164.564 174.567 163.67C174.567 162.769 174.741 161.981 175.089 161.307C175.438 160.629 175.932 160.102 176.572 159.727C177.216 159.348 177.98 159.159 178.862 159.159C179.745 159.159 180.506 159.348 181.146 159.727C181.79 160.102 182.286 160.629 182.635 161.307C182.983 161.981 183.158 162.769 183.158 163.67C183.158 164.564 182.983 165.35 182.635 166.028C182.286 166.703 181.79 167.229 181.146 167.608C180.506 167.983 179.745 168.17 178.862 168.17ZM178.874 166.295C179.275 166.295 179.61 166.182 179.879 165.955C180.148 165.723 180.351 165.409 180.487 165.011C180.627 164.614 180.697 164.161 180.697 163.653C180.697 163.146 180.627 162.693 180.487 162.295C180.351 161.898 180.148 161.583 179.879 161.352C179.61 161.121 179.275 161.006 178.874 161.006C178.468 161.006 178.127 161.121 177.851 161.352C177.578 161.583 177.372 161.898 177.232 162.295C177.095 162.693 177.027 163.146 177.027 163.653C177.027 164.161 177.095 164.614 177.232 165.011C177.372 165.409 177.578 165.723 177.851 165.955C178.127 166.182 178.468 166.295 178.874 166.295Z" fill="#328373"/>
</g>
<defs>
<clipPath id="clip0_7_2">
<rect width="216" height="216" fill="white"/>
</clipPath>
</defs>
</svg>
