<svg width="52" height="52" viewBox="0 0 52 52" fill="none" xmlns="http://www.w3.org/2000/svg">
<g clip-path="url(#clip0_26_105)">
<path d="M45.5 7.58334C45.5 6.0835 45.0553 4.61734 44.222 3.37026C43.3888 2.12319 42.2044 1.15121 40.8187 0.57725C39.4331 0.0032858 37.9083 -0.14689 36.4373 0.145715C34.9663 0.43832 33.615 1.16056 32.5545 2.22111C31.4939 3.28166 30.7717 4.63288 30.4791 6.1039C30.1865 7.57493 30.3367 9.09968 30.9106 10.4854C31.4846 11.871 32.4566 13.0554 33.7036 13.8886C34.9507 14.7219 36.4169 15.1667 37.9167 15.1667C39.9279 15.1667 41.8568 14.3677 43.2789 12.9456C44.7011 11.5234 45.5 9.59456 45.5 7.58334ZM37.9167 10.8333C37.0548 10.8333 36.2281 10.4909 35.6186 9.88143C35.0091 9.27194 34.6667 8.44529 34.6667 7.58334C34.6667 6.72138 35.0091 5.89473 35.6186 5.28524C36.2281 4.67575 37.0548 4.33334 37.9167 4.33334C38.7787 4.33334 39.6053 4.67575 40.2148 5.28524C40.8243 5.89473 41.1667 6.72138 41.1667 7.58334C41.1667 8.44529 40.8243 9.27194 40.2148 9.88143C39.6053 10.4909 38.7787 10.8333 37.9167 10.8333Z" fill="#084337"/>
<path d="M9.29502 13.6283L6.50002 16.445L3.70502 13.6283C3.29702 13.2204 2.74367 12.9911 2.16668 12.9911C1.58969 12.9911 1.03634 13.2204 0.628348 13.6283C0.220357 14.0363 -0.0088501 14.5897 -0.0088501 15.1667C-0.0088501 15.7437 0.220357 16.297 0.628348 16.705L3.44502 19.5L0.628348 22.295C0.220357 22.703 -0.00885007 23.2564 -0.00885006 23.8333C-0.00885005 24.4103 0.220357 24.9637 0.628348 25.3717C1.03634 25.7797 1.58969 26.0089 2.16668 26.0089C2.74367 26.0089 3.29702 25.7797 3.70502 25.3717L6.50002 22.555L9.29502 25.3717C9.70301 25.7797 10.2564 26.0089 10.8333 26.0089C11.4103 26.0089 11.9637 25.7797 12.3717 25.3717C12.7797 24.9637 13.0089 24.4103 13.0089 23.8333C13.0089 23.2564 12.7797 22.703 12.3717 22.295L9.55502 19.5L12.3717 16.705C12.7797 16.297 13.0089 15.7437 13.0089 15.1667C13.0089 14.5897 12.7797 14.0363 12.3717 13.6283C11.9637 13.2204 11.4103 12.9911 10.8333 12.9911C10.2564 12.9911 9.70301 13.2204 9.29502 13.6283Z" fill="#084337"/>
<path d="M48.555 39L51.3717 36.205C51.7797 35.797 52.0089 35.2437 52.0089 34.6667C52.0089 34.0897 51.7797 33.5363 51.3717 33.1283C50.9637 32.7204 50.4103 32.4911 49.8333 32.4911C49.2564 32.4911 48.703 32.7204 48.295 33.1283L45.5 35.945L42.705 33.1283C42.297 32.7204 41.7437 32.4911 41.1667 32.4911C40.5897 32.4911 40.0363 32.7204 39.6283 33.1283C39.2204 33.5363 38.9911 34.0897 38.9911 34.6667C38.9911 35.2437 39.2204 35.797 39.6283 36.205L42.445 39L39.6283 41.795C39.2204 42.203 38.9911 42.7564 38.9911 43.3333C38.9911 43.9103 39.2204 44.4637 39.6283 44.8717C40.0363 45.2797 40.5897 45.5089 41.1667 45.5089C41.7437 45.5089 42.297 45.2797 42.705 44.8717L45.5 42.055L48.295 44.8717C48.703 45.2797 49.2564 45.5089 49.8333 45.5089C50.4103 45.5089 50.9637 45.2797 51.3717 44.8717C51.7797 44.4637 52.0089 43.9103 52.0089 43.3333C52.0089 42.7564 51.7797 42.203 51.3717 41.795L48.555 39Z" fill="#084337"/>
<path d="M23.8334 15.1667C23.2587 15.1667 22.7076 15.395 22.3013 15.8013C21.895 16.2076 21.6667 16.7587 21.6667 17.3334C21.6667 17.908 21.895 18.4591 22.3013 18.8654C22.7076 19.2717 23.2587 19.5 23.8334 19.5H25.1117L18.0484 26.5634C15.6139 29.0009 14.2465 32.305 14.2465 35.75C14.2465 39.195 15.6139 42.4992 18.0484 44.9367C24.83 51.74 24.8084 52 26 52C26.4304 52.0025 26.8517 51.8768 27.2103 51.6389C27.569 51.401 27.8486 51.0617 28.0137 50.6642C28.1787 50.2668 28.2216 49.8292 28.137 49.4072C28.0523 48.9853 27.8439 48.5981 27.5384 48.295C21.385 42.1634 18.5684 40.3217 18.5684 35.75C18.5684 31.1784 20.3884 30.3334 28.1667 22.555V23.8334C28.1667 24.408 28.395 24.9591 28.8013 25.3654C29.2076 25.7717 29.7587 26 30.3334 26C30.908 26 31.4591 25.7717 31.8654 25.3654C32.2717 24.9591 32.5 24.408 32.5 23.8334C32.5 13.8883 33.735 15.1667 23.8334 15.1667Z" fill="#084337"/>
</g>
<defs>
<clipPath id="clip0_26_105">
<rect width="52" height="52" fill="white"/>
</clipPath>
</defs>
</svg>
