<svg width="52" height="52" viewBox="0 0 52 52" fill="none" xmlns="http://www.w3.org/2000/svg">
<path fill-rule="evenodd" clip-rule="evenodd" d="M47.8073 15.8851L46.2659 13.3889C44.9622 11.2767 42.0725 10.5481 39.8064 11.76C38.7277 12.3531 37.4404 12.5214 36.2287 12.2277C35.0169 11.934 33.9801 11.2026 33.3467 10.1946C32.9394 9.5539 32.7204 8.82413 32.7121 8.07914C32.7489 6.8847 32.2661 5.72729 31.3737 4.87047C30.4813 4.01368 29.2553 3.53046 27.9751 3.53095H24.8699C23.6156 3.53095 22.4131 3.99742 21.5283 4.8272C20.6435 5.65695 20.1495 6.78157 20.1555 7.95223C20.1183 10.3692 18.0083 12.3102 15.4185 12.31C14.6202 12.3023 13.8384 12.0979 13.1519 11.7177C10.8858 10.5057 7.99618 11.2344 6.69228 13.3466L5.03772 15.8851C3.73541 17.9946 4.50546 20.6899 6.76029 21.9141C8.22595 22.7039 9.12886 24.1634 9.12886 25.743C9.12886 27.3226 8.22595 28.7822 6.76029 29.572C4.50836 30.7879 3.73742 33.4766 5.03772 35.5798L6.60162 38.0973C7.21258 39.1262 8.23761 39.8854 9.44992 40.2067C10.6622 40.5284 11.9619 40.3859 13.0613 39.8105C14.142 39.2222 15.4299 39.0606 16.6387 39.3626C17.8474 39.6645 18.8769 40.4047 19.4982 41.4183C19.9056 42.059 20.1246 42.7887 20.1329 43.5337C20.1329 45.9756 22.2537 47.9551 24.8699 47.9551H27.9751C30.5825 47.9551 32.6996 45.9884 32.7121 43.5548C32.7061 42.3807 33.2032 41.253 34.0929 40.4223C34.9826 39.5921 36.191 39.1279 37.4493 39.1338C38.2456 39.1535 39.0241 39.357 39.7157 39.7259C41.9759 40.9417 44.8637 40.2227 46.1753 38.1184L47.8073 35.5798C48.4387 34.5678 48.6122 33.3626 48.2891 32.231C47.9655 31.0994 47.1722 30.1348 46.0846 29.5508C44.9971 28.9668 44.2037 28.0022 43.8806 26.8706C43.5571 25.739 43.7305 24.5337 44.3619 23.5218C44.7727 22.8524 45.3674 22.2975 46.0846 21.9141C48.3258 20.6905 49.0943 18.011 47.8073 15.9063V15.8851Z" stroke="#084337" stroke-width="3" stroke-linecap="round" stroke-linejoin="round"/>
<path d="M26.4339 31.8356C30.039 31.8356 32.9615 29.1079 32.9615 25.7431C32.9615 22.3783 30.039 19.6506 26.4339 19.6506C22.8288 19.6506 19.9062 22.3783 19.9062 25.7431C19.9062 29.1079 22.8288 31.8356 26.4339 31.8356Z" stroke="#084337" stroke-width="3" stroke-linecap="round" stroke-linejoin="round"/>
</svg>
