<svg width="14" height="15" viewBox="0 0 14 15" fill="none" xmlns="http://www.w3.org/2000/svg">
<path fill-rule="evenodd" clip-rule="evenodd" d="M12.8712 4.58225L12.4562 3.86219C12.1052 3.2529 11.3272 3.04272 10.7171 3.39232V3.39232C10.4267 3.5634 10.0801 3.61194 9.75389 3.52723C9.42764 3.44252 9.14848 3.23152 8.97797 2.94075C8.86829 2.75594 8.80934 2.54543 8.80711 2.33053V2.33053C8.81701 1.98598 8.68702 1.65211 8.44676 1.40495C8.20651 1.1578 7.87644 1.01841 7.53175 1.01855H6.69575C6.35806 1.01855 6.03429 1.15311 5.79608 1.39247C5.55787 1.63182 5.42486 1.95623 5.42649 2.29392V2.29392C5.41648 2.99112 4.8484 3.55104 4.15113 3.55097C3.93622 3.54874 3.72572 3.4898 3.5409 3.38011V3.38011C2.93079 3.03051 2.15282 3.2407 1.80177 3.84998L1.35631 4.58225C1.00569 5.19077 1.21301 5.96824 1.82008 6.32138V6.32138C2.21468 6.5492 2.45777 6.97023 2.45777 7.42588C2.45777 7.88152 2.21468 8.30256 1.82008 8.53038V8.53038C1.21379 8.88113 1.00623 9.65672 1.35631 10.2634V10.2634L1.77736 10.9896C1.94185 11.2864 2.21782 11.5054 2.54421 11.5981C2.8706 11.6909 3.22051 11.6498 3.5165 11.4838V11.4838C3.80747 11.3141 4.15421 11.2675 4.47964 11.3546C4.80508 11.4417 5.08224 11.6552 5.24952 11.9476C5.35921 12.1324 5.41815 12.3429 5.42039 12.5578V12.5578C5.42039 13.2622 5.99138 13.8332 6.69575 13.8332H7.53175C8.23374 13.8332 8.80375 13.2659 8.80711 12.5639V12.5639C8.80548 12.2252 8.93932 11.8999 9.17886 11.6603C9.41839 11.4208 9.74373 11.2869 10.0825 11.2886C10.2969 11.2943 10.5065 11.353 10.6927 11.4594V11.4594C11.3012 11.8101 12.0787 11.6027 12.4318 10.9957V10.9957L12.8712 10.2634C13.0412 9.9715 13.0879 9.62384 13.0009 9.29742C12.9138 8.971 12.7002 8.69274 12.4074 8.52428V8.52428C12.1146 8.35581 11.901 8.07756 11.814 7.75113C11.7269 7.42471 11.7736 7.07705 11.9436 6.78515C12.0542 6.59206 12.2143 6.43197 12.4074 6.32138V6.32138C13.0108 5.96843 13.2177 5.1955 12.8712 4.58835V4.58835V4.58225Z" stroke="#084337" stroke-width="1.5" stroke-linecap="round" stroke-linejoin="round"/>
<circle cx="7.11681" cy="7.42589" r="1.75744" stroke="#084337" stroke-width="1.5" stroke-linecap="round" stroke-linejoin="round"/>
</svg>
