<svg width="52" height="52" viewBox="0 0 52 52" fill="none" xmlns="http://www.w3.org/2000/svg">
<path fill-rule="evenodd" clip-rule="evenodd" d="M24.3669 17.875H24.362C21.671 17.875 19.487 20.059 19.487 22.75C19.487 25.441 21.671 27.625 24.362 27.625H27.612C28.509 27.625 29.237 28.353 29.237 29.25C29.237 30.147 28.509 30.875 27.612 30.875H22.737C21.84 30.875 21.112 31.603 21.112 32.5C21.112 33.397 21.84 34.125 22.737 34.125H24.3669V35.75C24.3669 36.647 25.0949 37.375 25.9919 37.375C26.8889 37.375 27.6169 36.647 27.6169 35.75V34.125C30.3046 34.1217 32.487 31.9394 32.487 29.25C32.487 26.559 30.303 24.375 27.612 24.375H24.362C23.465 24.375 22.737 23.647 22.737 22.75C22.737 21.853 23.465 21.125 24.362 21.125H29.237C30.134 21.125 30.862 20.397 30.862 19.5C30.862 18.603 30.134 17.875 29.237 17.875H27.6169V16.25C27.6169 15.353 26.8889 14.625 25.9919 14.625C25.0949 14.625 24.3669 15.353 24.3669 16.25V17.875Z" fill="#084337"/>
<path fill-rule="evenodd" clip-rule="evenodd" d="M41.496 43.7742C41.8551 43.641 42.1525 43.3859 42.341 43.0592C42.51 42.8025 42.6059 42.5002 42.6075 42.185C42.6091 41.6487 42.3426 41.1499 41.8974 40.8541L34.6742 36.0604C33.9381 35.5712 32.4886 35.7484 32.4886 36.5072V40.6201C21.4467 40.6217 7.32387 40.6217 7.32387 40.6217C7.28812 40.6217 7.25075 40.6234 7.215 40.625H6.5C6.06938 40.625 5.655 40.4544 5.35112 40.1489C5.04562 39.845 4.875 39.4306 4.875 39V9.75C4.875 8.853 4.147 8.125 3.25 8.125C2.353 8.125 1.625 8.853 1.625 9.75V39C1.625 40.2935 2.1385 41.5334 3.05337 42.4466C3.96662 43.3615 5.2065 43.875 6.5 43.875L32.4285 43.953C32.4285 43.953 32.4285 47.1348 32.4285 47.892C32.4285 48.6493 33.8699 48.8248 34.6109 48.3324L41.496 43.7742Z" fill="#084337"/>
<path fill-rule="evenodd" clip-rule="evenodd" d="M10.5186 6.43335C10.1611 6.5666 9.8621 6.82173 9.6736 7.14835C9.5046 7.4051 9.41035 7.70735 9.40872 8.0226C9.40547 8.55885 9.67197 9.05773 10.1188 9.3551L17.3403 14.1472C18.0765 14.6364 19.5276 14.4609 19.5276 13.7004V9.58748C30.5695 9.58586 44.6907 9.58586 44.6907 9.58586C44.7281 9.58586 44.7638 9.58585 44.7996 9.5826H45.5146C45.9468 9.5826 46.3596 9.75486 46.6635 10.0587C46.969 10.3642 47.1396 10.777 47.1396 11.2076V40.4576C47.1396 41.3546 47.8676 42.0826 48.7646 42.0826C49.6616 42.0826 50.3896 41.3546 50.3896 40.4576V11.2076C50.3896 9.91573 49.8761 8.67423 48.9628 7.76098C48.048 6.8461 46.8081 6.3326 45.5146 6.3326L19.5861 6.2546C19.5861 6.2546 19.5861 3.07448 19.5861 2.3156C19.5861 1.55835 18.1463 1.38285 17.4037 1.87523L10.5186 6.43335Z" fill="#084337"/>
</svg>
