<svg width="53" height="53" viewBox="0 0 53 53" fill="none" xmlns="http://www.w3.org/2000/svg">
<path d="M41.9583 13.25V44.1667C41.9583 45.338 41.493 46.4614 40.6647 47.2897C39.8364 48.118 38.713 48.5833 37.5416 48.5833H15.4583C14.2869 48.5833 13.1635 48.118 12.3352 47.2897C11.507 46.4614 11.0416 45.338 11.0416 44.1667V13.25" stroke="#084337" stroke-width="4.83" stroke-linecap="round" stroke-linejoin="round"/>
<path d="M6.625 13.25H46.375" stroke="#084337" stroke-width="4.83" stroke-linecap="round" stroke-linejoin="round"/>
<path d="M17.6666 13.2498V8.83317C17.6666 7.6618 18.132 6.5384 18.9602 5.71012C19.7885 4.88183 20.9119 4.4165 22.0833 4.4165H30.9166C32.088 4.4165 33.2114 4.88183 34.0397 5.71012C34.868 6.5384 35.3333 7.6618 35.3333 8.83317V13.2498" stroke="#084337" stroke-width="4.83" stroke-linecap="round" stroke-linejoin="round"/>
</svg>
